<svg width="14" height="14" viewBox="0 0 14 14" fill="none" xmlns="http://www.w3.org/2000/svg">
<g clip-path="url(#clip0_624_182)">
<path d="M13.9864 4.03493C13.9536 3.34419 13.8333 2.86931 13.661 2.45782C13.4832 2.02104 13.2097 1.62998 12.8514 1.3049C12.5013 0.974758 12.0774 0.718223 11.6124 0.555731C11.1667 0.395719 10.658 0.284018 9.91413 0.253563C9.1647 0.220529 8.92678 0.212891 7.02602 0.212891C5.12526 0.212891 4.88735 0.220529 4.1407 0.250984C3.39682 0.281439 2.88542 0.393239 2.44238 0.553152C1.97189 0.718223 1.55076 0.972179 1.20067 1.3049C0.845131 1.62998 0.568969 2.02362 0.393871 2.45534C0.22155 2.86931 0.101257 3.34161 0.0684595 4.03235C0.0328843 4.72825 0.0246582 4.94917 0.0246582 6.71416C0.0246582 8.47915 0.0328843 8.70008 0.0656818 9.3934C0.0984794 10.0841 0.218879 10.559 0.3912 10.9705C0.568969 11.4073 0.845131 11.7983 1.20067 12.1234C1.55076 12.4536 1.97467 12.7101 2.4396 12.8726C2.88542 13.0326 3.39404 13.1443 4.13802 13.1748C4.88457 13.2053 5.12259 13.2129 7.02335 13.2129C8.92411 13.2129 9.16203 13.2053 9.90868 13.1748C10.6526 13.1443 11.164 13.0326 11.607 12.8726C12.5479 12.5348 13.2917 11.8441 13.6555 10.9705C13.8277 10.5565 13.9481 10.0841 13.9809 9.3934C14.0137 8.70008 14.0219 8.47915 14.0219 6.71416C14.0219 4.94917 14.0192 4.72825 13.9864 4.03493ZM12.7256 9.3426C12.6955 9.97749 12.5807 10.3203 12.4849 10.5489C12.2497 11.1152 11.7656 11.5647 11.1557 11.7832C10.9096 11.872 10.5377 11.9787 9.85665 12.0066C9.11823 12.0371 8.89676 12.0447 7.0288 12.0447C5.16084 12.0447 4.9366 12.0371 4.20084 12.0066C3.51711 11.9787 3.1479 11.872 2.90176 11.7832C2.59825 11.679 2.32198 11.5139 2.09774 11.2981C1.86527 11.0873 1.6875 10.8333 1.57533 10.5515C1.47961 10.3229 1.36476 9.97749 1.33474 9.34518C1.30184 8.6595 1.29372 8.45376 1.29372 6.71922C1.29372 4.98468 1.30184 4.77646 1.33474 4.09336C1.36476 3.45847 1.47961 3.11563 1.57533 2.88707C1.6875 2.60514 1.86527 2.3487 2.10052 2.14038C2.32743 1.92451 2.60092 1.75944 2.90454 1.65538C3.15068 1.5665 3.52267 1.45985 4.20362 1.43188C4.94204 1.40142 5.16361 1.39379 7.03147 1.39379C8.90221 1.39379 9.12368 1.40142 9.85943 1.43188C10.5432 1.45985 10.9124 1.5665 11.1585 1.65538C11.462 1.75944 11.7383 1.92451 11.9625 2.14038C12.195 2.35118 12.3728 2.60514 12.4849 2.88707C12.5807 3.11563 12.6955 3.46095 12.7256 4.09336C12.7584 4.77904 12.7667 4.98468 12.7667 6.71922C12.7667 8.45376 12.7584 8.65692 12.7256 9.3426Z" fill="white"/>
<path d="M7.02585 3.37451C5.04037 3.37451 3.42944 4.87027 3.42944 6.71403C3.42944 8.55779 5.04037 10.0536 7.02585 10.0536C9.01144 10.0536 10.6223 8.55779 10.6223 6.71403C10.6223 4.87027 9.01144 3.37451 7.02585 3.37451ZM7.02585 8.88029C5.73777 8.88029 4.69295 7.9102 4.69295 6.71403C4.69295 5.51786 5.73777 4.54777 7.02585 4.54777C8.31403 4.54777 9.35875 5.51786 9.35875 6.71403C9.35875 7.9102 8.31403 8.88029 7.02585 8.88029Z" fill="white"/>
<path d="M11.6043 3.24252C11.6043 3.67305 11.2284 4.02214 10.7646 4.02214C10.301 4.02214 9.92505 3.67305 9.92505 3.24252C9.92505 2.81188 10.301 2.46289 10.7646 2.46289C11.2284 2.46289 11.6043 2.81188 11.6043 3.24252V3.24252Z" fill="white"/>
</g>
<defs>
<clipPath id="clip0_624_182">
<rect width="14" height="13" fill="white" transform="translate(0 0.212891)"/>
</clipPath>
</defs>
</svg>
