<svg width="16" height="16" viewBox="0 0 16 16" fill="none" xmlns="http://www.w3.org/2000/svg">
<path d="M13.6558 2.41029C10.5302 -0.519993 5.47074 -0.520461 2.34467 2.41029C-0.780997 5.34057 -0.781465 10.0838 2.34467 13.0145C5.47024 15.9448 10.5297 15.9452 13.6558 13.0145C16.7815 10.0842 16.7819 5.34101 13.6558 2.41029ZM13.3215 11.9456C12.9478 11.6324 12.5481 11.3551 12.1267 11.1162C12.4052 10.2143 12.5702 9.22188 12.6092 8.19024H14.9607C14.8544 9.58079 14.2845 10.8852 13.3215 11.9456ZM1.03974 8.19024H3.39122C3.43022 9.22188 3.59521 10.2143 3.8737 11.1162C3.45236 11.3551 3.05262 11.6324 2.67893 11.9456C1.71596 10.8852 1.14609 9.58079 1.03974 8.19024ZM2.67896 3.47916C3.05265 3.79244 3.45239 4.06969 3.87373 4.30861C3.59524 5.21048 3.43025 6.20293 3.39125 7.23456H1.03974C1.14609 5.84404 1.71596 4.53961 2.67896 3.47916ZM7.49056 4.40738C6.6593 4.35164 5.8578 4.1597 5.11475 3.84306C5.5469 2.7998 6.34356 1.54852 7.49056 1.23843V4.40738ZM7.49056 5.36484V7.23459H4.41105C4.44633 6.36191 4.57822 5.52391 4.79757 4.75716C5.64198 5.10323 6.55011 5.3099 7.49056 5.36484ZM7.49056 8.19024V10.06C6.55011 10.1149 5.64198 10.3216 4.79757 10.6677C4.57822 9.90092 4.44633 9.06293 4.41105 8.19024H7.49056ZM7.49056 11.0175V14.1864C6.34362 13.8763 5.54696 12.6252 5.11475 11.5818C5.8578 11.2651 6.6593 11.0732 7.49056 11.0175ZM8.50992 11.0175C9.34118 11.0732 10.1427 11.2651 10.8857 11.5818C10.4535 12.6251 9.65692 13.8763 8.50992 14.1864V11.0175ZM8.50992 10.06V8.19024H11.5894C11.5542 9.06293 11.4223 9.90092 11.2029 10.6677C10.3585 10.3216 9.45037 10.1149 8.50992 10.06ZM8.50992 7.23459V5.36484C9.45037 5.3099 10.3585 5.10323 11.2029 4.75716C11.4223 5.52391 11.5542 6.36191 11.5894 7.23459H8.50992ZM8.50992 4.40738V1.23846C9.65692 1.54855 10.4536 2.79983 10.8857 3.84309C10.1427 4.1597 9.34118 4.35164 8.50992 4.40738ZM10.7993 1.71553C11.4517 1.98337 12.0604 2.34656 12.6061 2.79719C12.3463 3.01188 12.0723 3.20654 11.7861 3.38063C11.532 2.79072 11.2073 2.21744 10.7993 1.71553ZM4.21433 3.38063C3.92816 3.20654 3.65413 3.01188 3.39438 2.79719C3.94002 2.34656 4.54871 1.98337 5.20115 1.71553C4.79311 2.2175 4.46847 2.79078 4.21433 3.38063ZM4.21436 12.0442C4.46847 12.6341 4.79317 13.2074 5.20118 13.7093C4.54875 13.4415 3.94005 13.0783 3.39441 12.6276C3.65413 12.413 3.92819 12.2183 4.21436 12.0442ZM11.7861 12.0442C12.0723 12.2183 12.3463 12.413 12.6061 12.6276C12.0604 13.0782 11.4517 13.4414 10.7993 13.7093C11.2073 13.2074 11.532 12.6341 11.7861 12.0442ZM12.6093 7.23459C12.5703 6.20296 12.4053 5.21048 12.1268 4.30864C12.5481 4.06972 12.9478 3.79247 13.3216 3.47919C14.2845 4.53961 14.8544 5.84404 14.9607 7.23459H12.6093Z" fill="white"/>
</svg>
