<svg width="16" height="16" viewBox="0 0 16 16" fill="none" xmlns="http://www.w3.org/2000/svg">
<path d="M7.11305 4.24353L4.92807 1.72141C4.67618 1.43077 4.21439 1.43206 3.92181 1.72529L2.125 3.52532C1.59022 4.06075 1.43715 4.85581 1.74652 5.49329C3.59475 9.32004 6.68099 12.4106 10.5052 14.2642C11.142 14.5736 11.9364 14.4205 12.4712 13.8851L14.2848 12.0682C14.5786 11.7744 14.5793 11.31 14.2861 11.0581L11.7543 8.88474C11.4895 8.6574 11.078 8.68711 10.8126 8.9532L9.93162 9.83546C9.88652 9.88273 9.82715 9.91389 9.76263 9.92416C9.69811 9.93442 9.632 9.92323 9.57446 9.8923C8.13445 9.06307 6.93995 7.867 6.1126 6.42592C6.08161 6.36828 6.07039 6.30206 6.08066 6.23743C6.09093 6.17279 6.12211 6.11331 6.16943 6.06811L7.04782 5.18908C7.31391 4.92169 7.34298 4.50834 7.11305 4.24288V4.24353Z" stroke="white" stroke-width="1.55009" stroke-linecap="round" stroke-linejoin="round"/>
</svg>
